<?xml version="1.0" encoding="utf-8"?>
<svg viewBox="96 63 265 264" xmlns="http://www.w3.org/2000/svg">
  <title>breakfast</title>
  <circle cx="228.006" cy="195.223" r="130.366" style="fill: rgb(255, 87, 34);"/>
  <path d="M 228.006 290.378 C 154.756 290.378 108.976 211.083 145.6 147.647 C 182.225 84.21 273.787 84.21 310.412 147.647 C 331.946 184.944 325.744 232.054 295.29 262.508 C 277.484 280.411 253.256 290.447 228.006 290.378 Z M 228.006 105.937 C 178.773 105.937 138.72 145.99 138.72 195.223 C 138.72 244.455 178.773 284.509 228.006 284.509 C 277.238 284.509 317.292 244.455 317.292 195.223 C 317.292 145.99 277.238 105.937 228.006 105.937 Z" opacity="0.2" style=""/>
  <circle cx="228.006" cy="195.223" r="92.22" style="fill: rgb(132, 54, 30);"/>
  <path d="M 159.423 158.348 C 155.326 150.324 161.452 140.873 170.45 141.337 C 174.635 141.553 178.385 143.99 180.282 147.726 L 206.337 198.889 C 210.434 206.913 204.308 216.363 195.31 215.899 C 191.126 215.683 187.376 213.247 185.478 209.511 Z" fill="#ff6584" style=""/>
  <path d="M 162.329 164.054 L 161.127 161.693 C 167.128 157.03 174.176 153.601 181.986 151.071 L 183.188 153.432 C 174.735 155.192 167.544 158.45 162.329 164.054 Z" opacity="0.2" style=""/>
  <path d="M 167.941 175.074 L 166.739 172.713 C 172.74 168.05 179.787 164.62 187.598 162.091 L 188.8 164.452 C 180.347 166.212 173.156 169.47 167.941 175.074 Z" opacity="0.2" style=""/>
  <path d="M 173.553 186.094 L 172.35 183.733 C 178.352 179.07 185.399 175.64 193.209 173.11 L 194.412 175.472 C 185.959 177.232 178.767 180.49 173.553 186.094 Z" opacity="0.2" style=""/>
  <path d="M 179.165 197.114 L 177.962 194.752 C 183.964 190.089 191.011 186.66 198.821 184.13 L 200.024 186.492 C 191.571 188.252 184.379 191.509 179.165 197.114 Z" opacity="0.2" style=""/>
  <path d="M 184.777 208.134 L 183.574 205.772 C 189.575 201.109 196.623 197.68 204.433 195.15 L 205.635 197.511 C 197.182 199.272 189.991 202.529 184.777 208.134 Z" opacity="0.2" style=""/>
  <path d="M 139.876 177.501 C 135.78 169.477 141.907 160.027 150.905 160.492 C 155.089 160.708 158.838 163.144 160.735 166.879 L 186.79 218.042 C 190.87 226.075 184.724 235.513 175.727 235.03 C 171.561 234.806 167.828 232.381 165.931 228.665 Z" fill="#ff6584" style=""/>
  <path d="M 142.782 183.208 L 141.58 180.847 C 147.581 176.184 154.629 172.754 162.439 170.224 L 163.641 172.586 C 155.188 174.346 147.997 177.604 142.782 183.208 Z" opacity="0.2" style=""/>
  <path d="M 148.394 194.228 L 147.192 191.867 C 153.193 187.203 160.24 183.774 168.051 181.244 L 169.253 183.606 C 160.8 185.366 153.609 188.623 148.394 194.228 Z" opacity="0.2" style=""/>
  <path d="M 154.006 205.248 L 152.803 202.886 C 158.805 198.223 165.852 194.794 173.662 192.264 L 174.865 194.625 C 166.412 196.386 159.22 199.643 154.006 205.248 Z" opacity="0.2" style=""/>
  <path d="M 159.618 216.267 L 158.415 213.906 C 164.417 209.243 171.464 205.814 179.274 203.284 L 180.477 205.645 C 172.024 207.405 164.832 210.663 159.618 216.267 Z" opacity="0.2" style=""/>
  <path d="M 165.23 227.287 L 164.027 224.926 C 170.028 220.263 177.076 216.833 184.886 214.304 L 186.088 216.665 C 177.635 218.425 170.444 221.683 165.23 227.287 Z" opacity="0.2" style=""/>
  <path d="M 289.626 198.157 L 289.708 198.157 C 295.451 198.205 300.638 194.731 302.779 189.402 C 304.931 183.963 306.015 178.16 305.973 172.311 C 305.827 147.553 285.685 127.243 260.93 126.9 C 225.755 126.408 203.237 164.178 220.398 194.887 C 225.25 203.569 232.801 210.431 241.907 214.432 C 247.128 216.744 253.233 215.611 257.278 211.581 C 265.841 202.974 277.485 198.142 289.626 198.157 Z" fill="#e6e6e6" style=""/>
  <circle cx="266.151" cy="169.234" r="15.091" fill="#f9a825" style=""/>
  <circle cx="233.354" cy="165.759" r="1.778" fill="#3f3d56" style=""/>
  <circle cx="174.668" cy="167.436" r="1.778" fill="#3f3d56" style=""/>
  <circle cx="242.829" cy="147.335" r="1.778" fill="#3f3d56" style=""/>
  <circle cx="242.778" cy="198.576" r="1.778" fill="#3f3d56" style=""/>
  <circle cx="277.99" cy="143.663" r="1.778" fill="#3f3d56" style=""/>
  <circle cx="163.133" cy="192.289" r="1.778" fill="#3f3d56" style=""/>
  <circle cx="176.128" cy="217.859" r="1.778" fill="#3f3d56" style=""/>
  <circle cx="257.768" cy="221.212" r="6.707" fill="#ff6584" style=""/>
  <path d="M 262.798 221.631 C 262.798 225.504 258.606 227.924 255.253 225.988 C 253.696 225.089 252.738 223.429 252.738 221.631" opacity="0.2" style=""/>
  <path d="M 252.738 220.793 C 252.738 216.921 256.929 214.501 260.283 216.437 C 261.839 217.335 262.798 218.996 262.798 220.793" opacity="0.2" style=""/>
  <ellipse cx="255.253" cy="218.907" rx="0.419" ry="0.629" fill="#ff6584" style=""/>
  <ellipse cx="257.768" cy="218.068" rx="0.419" ry="0.629" fill="#ff6584" style=""/>
  <ellipse cx="257.768" cy="223.518" rx="0.419" ry="0.629" fill="#ff6584" style=""/>
  <ellipse cx="260.283" cy="220.164" rx="0.419" ry="0.629" fill="#ff6584" style=""/>
  <ellipse cx="259.864" cy="224.775" rx="0.419" ry="0.629" fill="#ff6584" style=""/>
  <ellipse cx="254.833" cy="222.68" rx="0.419" ry="0.629" fill="#ff6584" style=""/>
  <circle cx="271.182" cy="203.187" r="6.707" fill="#ff6584" style=""/>
  <path d="M 276.212 203.607 C 276.212 207.479 272.02 209.899 268.666 207.963 C 267.11 207.064 266.151 205.404 266.151 203.607" opacity="0.2" style=""/>
  <path d="M 266.151 202.768 C 266.151 198.896 270.343 196.476 273.697 198.412 C 275.253 199.311 276.212 200.971 276.212 202.768" opacity="0.2" style=""/>
  <ellipse cx="268.667" cy="200.882" rx="0.419" ry="0.629" fill="#ff6584" style=""/>
  <ellipse cx="271.182" cy="200.044" rx="0.419" ry="0.629" fill="#ff6584" style=""/>
  <ellipse cx="271.182" cy="205.493" rx="0.419" ry="0.629" fill="#ff6584" style=""/>
  <ellipse cx="273.697" cy="202.139" rx="0.419" ry="0.629" fill="#ff6584" style=""/>
  <ellipse cx="273.278" cy="206.751" rx="0.419" ry="0.629" fill="#ff6584" style=""/>
  <ellipse cx="268.247" cy="204.655" rx="0.419" ry="0.629" fill="#ff6584" style=""/>
  <circle cx="284.596" cy="212.409" r="6.707" fill="#6c63ff" style=""/>
  <path d="M 289.626 212.829 C 289.626 216.701 285.434 219.121 282.08 217.185 C 280.524 216.286 279.565 214.626 279.565 212.829" opacity="0.2" style=""/>
  <path d="M 279.565 211.99 C 279.565 208.118 283.757 205.698 287.111 207.634 C 288.667 208.533 289.626 210.193 289.626 211.99" opacity="0.2" style=""/>
  <ellipse cx="282.08" cy="210.104" rx="0.419" ry="0.629" fill="#6c63ff" style=""/>
  <ellipse cx="284.596" cy="209.266" rx="0.419" ry="0.629" fill="#6c63ff" style=""/>
  <ellipse cx="284.596" cy="214.715" rx="0.419" ry="0.629" fill="#6c63ff" style=""/>
  <ellipse cx="287.111" cy="211.362" rx="0.419" ry="0.629" fill="#6c63ff" style=""/>
  <ellipse cx="286.691" cy="215.973" rx="0.419" ry="0.629" fill="#6c63ff" style=""/>
  <ellipse cx="281.661" cy="213.877" rx="0.419" ry="0.629" fill="#6c63ff" style=""/>
  <circle cx="251.061" cy="213.248" r="6.707" fill="#6c63ff" style=""/>
  <path d="M 256.091 213.667 C 256.091 217.539 251.899 219.959 248.546 218.023 C 246.989 217.125 246.031 215.464 246.031 213.667" opacity="0.2" style=""/>
  <path d="M 246.031 212.829 C 246.031 208.956 250.222 206.536 253.576 208.472 C 255.132 209.371 256.091 211.032 256.091 212.829" opacity="0.2" style=""/>
  <ellipse cx="248.546" cy="210.942" rx="0.419" ry="0.629" fill="#6c63ff" style=""/>
  <ellipse cx="251.061" cy="210.104" rx="0.419" ry="0.629" fill="#6c63ff" style=""/>
  <ellipse cx="251.061" cy="215.553" rx="0.419" ry="0.629" fill="#6c63ff" style=""/>
  <ellipse cx="253.576" cy="212.2" rx="0.419" ry="0.629" fill="#6c63ff" style=""/>
  <ellipse cx="253.157" cy="216.811" rx="0.419" ry="0.629" fill="#6c63ff" style=""/>
  <ellipse cx="248.127" cy="214.715" rx="0.419" ry="0.629" fill="#6c63ff" style=""/>
  <circle cx="266.151" cy="216.182" r="6.707" fill="#6c63ff" style=""/>
  <path d="M 271.182 216.601 C 271.182 220.474 266.99 222.894 263.636 220.958 C 262.08 220.059 261.121 218.398 261.121 216.601" opacity="0.2" style=""/>
  <path d="M 261.121 215.763 C 261.121 211.891 265.313 209.471 268.666 211.407 C 270.223 212.305 271.182 213.966 271.182 215.763" opacity="0.2" style=""/>
  <ellipse cx="263.636" cy="213.877" rx="0.419" ry="0.629" fill="#6c63ff" style=""/>
  <ellipse cx="266.151" cy="213.038" rx="0.419" ry="0.629" fill="#6c63ff" style=""/>
  <ellipse cx="266.151" cy="218.488" rx="0.419" ry="0.629" fill="#6c63ff" style=""/>
  <ellipse cx="268.667" cy="215.134" rx="0.419" ry="0.629" fill="#6c63ff" style=""/>
  <ellipse cx="268.247" cy="219.745" rx="0.419" ry="0.629" fill="#6c63ff" style=""/>
  <ellipse cx="263.217" cy="217.649" rx="0.419" ry="0.629" fill="#6c63ff" style=""/>
  <circle cx="276.631" cy="223.308" r="6.707" fill="#ff6584" style=""/>
  <path d="M 281.661 223.727 C 281.661 227.6 277.469 230.02 274.116 228.084 C 272.56 227.185 271.601 225.525 271.601 223.727" opacity="0.2" style=""/>
  <path d="M 271.601 222.889 C 271.601 219.017 275.793 216.597 279.146 218.533 C 280.702 219.431 281.661 221.092 281.661 222.889" opacity="0.2" style=""/>
  <ellipse cx="274.116" cy="221.003" rx="0.419" ry="0.629" fill="#ff6584" style=""/>
  <ellipse cx="276.631" cy="220.164" rx="0.419" ry="0.629" fill="#ff6584" style=""/>
  <ellipse cx="276.631" cy="225.614" rx="0.419" ry="0.629" fill="#ff6584" style=""/>
  <ellipse cx="279.146" cy="222.26" rx="0.419" ry="0.629" fill="#ff6584" style=""/>
  <ellipse cx="278.727" cy="226.871" rx="0.419" ry="0.629" fill="#ff6584" style=""/>
  <ellipse cx="273.697" cy="224.775" rx="0.419" ry="0.629" fill="#ff6584" style=""/>
  <circle cx="190.38" cy="197.738" r="1.778" fill="#3f3d56" style=""/>
  <polygon points="238.703 262.266 196.008 250.426 197.643 244.35 240.338 256.191 238.703 262.266" fill="#f9a825" style=""/>
  <path d="M 232.444 260.236 C 217.823 263.034 202.804 263.034 188.183 260.236 L 188.183 253.938 C 202.837 256.367 217.79 256.367 232.444 253.938 Z" fill="#f9a825" style=""/>
  <path d="M 236.994 241.343 C 222.373 244.142 207.354 244.142 192.733 241.343 L 192.733 235.045 C 207.387 237.474 222.34 237.474 236.994 235.045 Z" fill="#f9a825" style=""/>
  <path d="M 252.299 248.9 C 237.678 251.699 222.659 251.699 208.038 248.9 L 208.038 242.602 C 222.692 245.031 237.645 245.031 252.299 242.602 Z" fill="#f9a825" style=""/>
  <path d="M 256.022 256.037 C 241.401 258.836 226.382 258.836 211.761 256.037 L 211.761 249.74 C 226.415 252.168 241.368 252.168 256.022 249.74 Z" fill="#f9a825" style=""/>
  <polygon points="269.001 265.363 225.334 272.698 224.321 266.485 267.988 259.15 269.001 265.363" fill="#f9a825" style=""/>
  <path d="M 262.478 266.171 C 250.372 274.898 236.727 281.261 222.261 284.928 L 219.67 279.206 C 234.01 275.191 247.595 268.854 259.887 260.448 Z" fill="#f9a825" style=""/>
  <path d="M 258.84 247.076 C 246.734 255.802 233.089 262.166 218.623 265.833 L 216.032 260.111 C 230.372 256.095 243.958 249.759 256.25 241.353 Z" fill="#f9a825" style=""/>
  <path d="M 275.856 247.456 C 263.75 256.183 250.105 262.547 235.639 266.214 L 233.048 260.491 C 247.388 256.476 260.973 250.14 273.265 241.734 Z" fill="#f9a825" style=""/>
  <path d="M 282.175 252.364 C 270.069 261.09 256.424 267.454 241.958 271.121 L 239.367 265.399 C 253.707 261.383 267.292 255.047 279.584 246.641 Z" fill="#f9a825" style=""/>
  <rect x="227.167" y="240.076" width="2.096" height="2.096" fill="#00bf71" style=""/>
  <rect x="233.455" y="276.545" width="2.096" height="2.096" fill="#00bf71" style=""/>
  <rect x="199.92" y="240.076" width="2.096" height="2.096" fill="#00bf71" style=""/>
  <rect x="248.546" y="266.065" width="2.096" height="2.096" fill="#00bf71" style=""/>
  <rect x="249.803" y="253.909" width="2.096" height="2.096" fill="#00bf71" style=""/>
  <rect x="309.992" y="294.108" width="2.934" height="1.677" transform="matrix(0.827515, 0.561444, -0.561444, 0.827515, 123.498619, -170.89917)" fill="#00bf71" style=""/>
  <rect x="334.724" y="298.719" width="2.934" height="1.677" transform="matrix(0.827515, 0.561444, -0.561444, 0.827515, 130.353317, -183.989349)" fill="#00bf71" style=""/>
  <rect x="304.542" y="306.683" width="2.934" height="1.677" transform="matrix(0.827515, 0.561444, -0.561444, 0.827515, 129.619125, -165.670563)" fill="#00bf71" style=""/>
  <rect x="321.729" y="305.007" width="2.934" height="1.677" transform="matrix(-0.561444, 0.827515, -0.827515, -0.561444, 661.924377, 163.203888)" fill="#00bf71" style=""/>
  <rect x="333.047" y="307.941" width="2.934" height="1.677" transform="matrix(-0.561444, 0.827515, -0.827515, -0.561444, 682.024902, 158.41983)" fill="#00bf71" style=""/>
  <rect x="363.226" y="297.879" width="2.934" height="1.677" transform="matrix(-0.561443, 0.827515, -0.827515, -0.561443, 720.82605, 117.735649)" fill="#00bf71" style=""/>
</svg>