<?xml version="1.0" encoding="utf-8"?>
<svg viewBox="0 0 500 452" xmlns="http://www.w3.org/2000/svg">
  <path d="M 494.44 173.242 C 494.262 173.242 494.087 173.188 493.941 173.085 L 252.381 4.856 C 250.876 3.813 248.88 3.816 247.378 4.865 L 7.559 173.084 C 7.007 173.469 6.246 173.115 6.186 172.445 C 6.159 172.135 6.3 171.832 6.556 171.654 L 246.375 3.434 C 248.479 1.967 251.272 1.961 253.38 3.423 L 494.94 171.652 C 495.491 172.036 495.42 172.874 494.811 173.158 C 494.695 173.214 494.568 173.242 494.44 173.242 Z" fill="#3f3d56" style=""/>
  <polygon points="21.263 179.205 250.116 9.597 480.707 191.273 261.907 320.981 143.119 293.903 21.263 179.205" fill="#e6e6e6" style=""/>
  <path d="M 153.146 401.094 L 40.086 401.094 C 36.02 401.101 33.474 396.702 35.503 393.178 C 36.445 391.538 38.194 390.529 40.086 390.531 L 153.146 390.531 C 157.212 390.526 159.759 394.925 157.73 398.449 C 156.785 400.087 155.037 401.097 153.146 401.094 Z" style="fill: rgb(0, 173, 181);"/>
  <path d="M 80.65 378.385 L 40.086 378.385 C 36.02 378.39 33.474 373.991 35.503 370.467 C 36.445 368.828 38.194 367.819 40.086 367.822 L 80.65 367.822 C 84.716 367.815 87.262 372.214 85.233 375.737 C 84.29 377.378 82.542 378.387 80.65 378.385 Z" style="fill: rgb(0, 173, 181);"/>
  <path d="M 253.334 273.675 C 252.475 273.676 251.624 273.509 250.828 273.184 L 109.688 214.621 L 109.688 31.307 C 109.691 27.931 112.426 25.197 115.802 25.191 L 386.57 25.191 C 389.945 25.197 392.68 27.931 392.684 31.307 L 392.684 214.748 L 392.418 214.861 L 255.916 273.156 C 255.098 273.499 254.22 273.676 253.334 273.675 Z" fill="#fff" style=""/>
  <path d="M 253.334 274.111 C 252.417 274.112 251.51 273.935 250.661 273.588 L 109.25 214.912 L 109.25 31.307 C 109.255 27.689 112.184 24.761 115.802 24.755 L 386.57 24.755 C 390.186 24.761 393.117 27.689 393.12 31.307 L 393.12 215.036 L 256.087 273.556 C 255.216 273.923 254.28 274.112 253.334 274.111 Z M 110.996 213.745 L 251.328 271.973 C 252.637 272.504 254.102 272.496 255.405 271.948 L 391.374 213.883 L 391.374 31.307 C 391.371 28.654 389.221 26.506 386.57 26.502 L 115.802 26.502 C 113.149 26.506 111.001 28.654 110.996 31.307 L 110.996 213.745 Z" fill="#3f3d56" style=""/>
  <path d="M 492.693 171.495 L 492.518 171.495 L 392.247 214.312 L 255.055 272.893 C 253.972 273.348 252.752 273.355 251.665 272.911 L 110.124 214.189 L 7.389 171.565 L 7.232 171.495 L 7.057 171.495 C 3.681 171.499 0.946 174.233 0.942 177.609 L 0.942 443.138 C 0.946 446.511 3.681 449.248 7.057 449.251 L 492.693 449.251 C 496.068 449.248 498.804 446.511 498.808 443.138 L 498.808 177.609 C 498.804 174.233 496.068 171.499 492.693 171.495 Z M 497.061 443.138 C 497.06 445.549 495.105 447.504 492.693 447.505 L 7.057 447.505 C 4.645 447.504 2.69 445.549 2.69 443.138 L 2.69 177.609 C 2.692 175.262 4.546 173.336 6.891 173.242 L 110.124 216.076 L 250.993 274.527 C 252.518 275.147 254.226 275.137 255.745 274.501 L 392.247 216.206 L 492.868 173.242 C 495.209 173.343 497.055 175.267 497.061 177.609 L 497.061 443.138 Z" fill="#3f3d56" style=""/>
  <path d="M 251.923 221.693 C 246.713 221.703 241.64 220.019 237.471 216.893 L 237.213 216.7 L 182.788 175.03 C 168.013 163.709 171.033 140.638 188.224 133.502 C 196.204 130.191 205.342 131.388 212.2 136.641 L 247.452 163.673 L 330.76 55.027 C 338.886 44.43 354.064 42.426 364.661 50.552 L 364.144 51.257 L 364.675 50.563 C 375.259 58.696 377.261 73.863 369.15 84.464 L 271.16 212.258 C 266.567 218.226 259.456 221.714 251.923 221.693 Z" style="fill: rgb(0, 173, 181);"/>
</svg>